# xmcd
#
# Track frame offsets:
#	150
#	13355
#	26137
#	38380
#	53472
#	65955
#	78165
#	91015
#	104757
#	117375
#	132705
#	147420
#
# Disc length: 2168 seconds
#
# Revision: 0
# Processed by: cddbd v1.5.1PL2 Copyright (c) Steve Scherf et al.
# Submitted via: EasyCDDAExtractor 9.0.0.1
#
DISCID=a808760c
DTITLE=Sally Vaughn - Mama Country
DYEAR=2003
DGENRE=Country
TTITLE0=The Teddy Bear Song
TTITLE1=Did We Have To Go This Far To Say Goodbye
TTITLE2=With You
TTITLE3=Blue Eyes Don't Make Me An Angel
TTITLE4=Somewhere Between
TTITLE5=I Fall To Pieces
TTITLE6=The French Song
TTITLE7=He Thinks I Still Care
TTITLE8=You Still Get To Me In My Dreams
TTITLE9=Lovers For The Last Time
TTITLE10=I'm Doing This For Your Sake
TTITLE11=I Was The Other Woman
EXTD=
EXTT0=
EXTT1=
EXTT2=
EXTT3=
EXTT4=
EXTT5=
EXTT6=
EXTT7=
EXTT8=
EXTT9=
EXTT10=
EXTT11=
PLAYORDER=
